<svg width="512" height="512" viewBox="0 0 512 512" fill="none" xmlns="http://www.w3.org/2000/svg">
<g clip-path="url(#clip0_313_200)">
<rect width="512" height="512" rx="100.392" fill="white"/>
<g opacity="0.35" filter="url(#filter0_f_313_200)">
<circle cx="-25.5847" cy="-0.486526" r="147.592" fill="#151924"/>
</g>
<g opacity="0.35" filter="url(#filter1_f_313_200)">
<circle cx="479.244" cy="503.036" r="147.592" fill="#151924"/>
</g>
<g clip-path="url(#clip1_313_200)">
<path fill-rule="evenodd" clip-rule="evenodd" d="M200.761 257.394V257.394C200.609 262.102 200.457 266.811 200.379 271.52C200.63 315.568 200.861 359.543 201.071 403.444C201.197 420.906 204.752 424.462 222.371 424.462C242.458 424.482 262.545 424.469 282.633 424.457H282.689C324.911 424.431 367.133 424.405 409.355 424.682C423.954 424.682 430.247 419.648 430.247 404.546C430.058 376.95 430.11 349.354 430.163 321.782C430.224 289.628 430.285 257.507 429.964 225.459C429.24 155.359 375.155 95.0132 305.307 88.2802C260.433 84.2787 215.287 84.3524 170.426 88.5004C151.908 90.4425 118.482 103.697 106.866 113.65C155.382 140.141 198.648 171.342 200.976 226.245C201.431 236.616 201.096 247.002 200.761 257.393V257.393V257.394ZM223.279 297.708C223.279 293.364 226.8 289.842 231.145 289.842H407.337C411.681 289.842 415.203 293.364 415.203 297.708C415.203 302.052 411.681 305.574 407.337 305.574H231.145C226.8 305.574 223.279 302.052 223.279 297.708ZM231.145 324.452C226.8 324.452 223.279 327.973 223.279 332.317C223.279 336.661 226.8 340.183 231.145 340.183H259.461C263.805 340.183 267.327 336.661 267.327 332.317C267.327 327.973 263.805 324.452 259.461 324.452H231.145ZM279.912 332.317C279.912 327.973 283.434 324.452 287.778 324.452H407.337C411.681 324.452 415.203 327.973 415.203 332.317C415.203 336.661 411.681 340.183 407.337 340.183H287.778C283.434 340.183 279.912 336.661 279.912 332.317ZM287.778 359.061C283.434 359.061 279.912 362.582 279.912 366.927C279.912 371.271 283.434 374.792 287.778 374.792H407.337C411.681 374.792 415.203 371.271 415.203 366.927C415.203 362.582 411.681 359.061 407.337 359.061H287.778Z" fill="#0A0A0A"/>
<path d="M125.743 102.638C174.322 129.067 198.648 171.343 200.976 226.245C201.637 241.316 201.228 306.203 200.976 321.305C153.929 321.305 106.871 321.305 59.8022 321.305C42.0885 321.305 38.3759 317.844 38.2501 300.54C38.2501 179.722 72.2562 137.247 104.416 114.521C110.459 109.517 121.024 104.211 125.743 102.638Z" fill="#D7D7D8"/>
</g>
</g>
<defs>
<filter id="filter0_f_313_200" x="-545.708" y="-520.61" width="1040.25" height="1040.25" filterUnits="userSpaceOnUse" color-interpolation-filters="sRGB">
<feFlood flood-opacity="0" result="BackgroundImageFix"/>
<feBlend mode="normal" in="SourceGraphic" in2="BackgroundImageFix" result="shape"/>
<feGaussianBlur stdDeviation="186.266" result="effect1_foregroundBlur_313_200"/>
</filter>
<filter id="filter1_f_313_200" x="-40.8788" y="-17.0868" width="1040.25" height="1040.25" filterUnits="userSpaceOnUse" color-interpolation-filters="sRGB">
<feFlood flood-opacity="0" result="BackgroundImageFix"/>
<feBlend mode="normal" in="SourceGraphic" in2="BackgroundImageFix" result="shape"/>
<feGaussianBlur stdDeviation="186.266" result="effect1_foregroundBlur_313_200"/>
</filter>
<clipPath id="clip0_313_200">
<rect width="512" height="512" rx="100.392" fill="white"/>
</clipPath>
<clipPath id="clip1_313_200">
<rect width="392.594" height="339.359" fill="white" transform="translate(37.6471 85.3333)"/>
</clipPath>
</defs>
</svg>
